<svg width="16" height="17" viewBox="0 0 16 17" fill="none" xmlns="http://www.w3.org/2000/svg">
<path d="M7 14.6713C7 14.6713 6 14.6713 6 13.6713C6 12.6713 7 9.67133 11 9.67133C15 9.67133 16 12.6713 16 13.6713C16 14.6713 15 14.6713 15 14.6713H7ZM11 8.67133C11.7956 8.67133 12.5587 8.35526 13.1213 7.79265C13.6839 7.23004 14 6.46698 14 5.67133C14 4.87568 13.6839 4.11261 13.1213 3.55001C12.5587 2.9874 11.7956 2.67133 11 2.67133C10.2044 2.67133 9.44129 2.9874 8.87868 3.55001C8.31607 4.11261 8 4.87568 8 5.67133C8 6.46698 8.31607 7.23004 8.87868 7.79265C9.44129 8.35526 10.2044 8.67133 11 8.67133ZM5.216 14.6713C5.06782 14.3591 4.9939 14.0169 5 13.6713C5 12.3163 5.68 10.9213 6.936 9.95133C6.30918 9.75776 5.65598 9.66329 5 9.67133C1 9.67133 0 12.6713 0 13.6713C0 14.6713 1 14.6713 1 14.6713H5.216ZM4.5 8.67133C5.16304 8.67133 5.79893 8.40793 6.26777 7.93909C6.73661 7.47025 7 6.83437 7 6.17133C7 5.50828 6.73661 4.8724 6.26777 4.40356C5.79893 3.93472 5.16304 3.67133 4.5 3.67133C3.83696 3.67133 3.20107 3.93472 2.73223 4.40356C2.26339 4.8724 2 5.50828 2 6.17133C2 6.83437 2.26339 7.47025 2.73223 7.93909C3.20107 8.40793 3.83696 8.67133 4.5 8.67133Z" fill="black"/>
</svg>
