<svg width="17" height="16" viewBox="0 0 17 16" fill="none" xmlns="http://www.w3.org/2000/svg">
<g clip-path="url(#clip0_176_34)">
<path d="M8.81191 2.74805L8.09491 2.01105C6.41191 0.281049 3.32591 0.878049 2.21191 3.05305C1.68891 4.07605 1.57091 5.55305 2.52591 7.43805C3.44591 9.25305 5.35991 11.427 8.81191 13.795C12.2639 11.427 14.1769 9.25305 15.0979 7.43805C16.0529 5.55205 15.9359 4.07605 15.4119 3.05305C14.2979 0.878049 11.2119 0.280049 9.52891 2.01005L8.81191 2.74805ZM8.81191 15C-6.52109 4.86805 4.09091 -3.03995 8.63591 1.14305C8.69591 1.19838 8.75457 1.25538 8.81191 1.31405C8.86824 1.25501 8.92695 1.1983 8.98791 1.14405C13.5319 -3.04195 24.1449 4.86705 8.81191 15Z" fill="black" fill-opacity="0.5"/>
</g>
<defs>
<clipPath id="clip0_176_34">
<rect width="16" height="16" fill="white" transform="translate(0.812012)"/>
</clipPath>
</defs>
</svg>
